<svg xmlns="http://www.w3.org/2000/svg" viewBox="0 0 201.57 201.57"><defs><style>.cls-1{fill:none;}.cls-2{fill:#f8ba00;}.cls-3{fill:#f5c95e;}</style></defs><title>Recurso 3</title><g id="Capa_2" data-name="Capa 2"><g id="Capa_1-2" data-name="Capa 1"><rect class="cls-1" width="201.57" height="201.57"/><path class="cls-2" d="M100.78,44.12h-16a9,9,0,0,0-9,9V94.4H88.29V54.58h25V94.4h12.49V53.11a9,9,0,0,0-9-9Z"/><path class="cls-3" d="M100.78,44.12H85.31a8.85,8.85,0,0,0-8.7,9V94.4H88.7V54.58h24.17V94.4H125V53.11a8.86,8.86,0,0,0-8.71-9Z"/><rect class="cls-2" x="64.04" y="83.97" width="73.48" height="73.48" rx="8.24"/><rect class="cls-3" x="67.35" y="90.57" width="66.87" height="66.87" rx="8.24"/><path class="cls-2" d="M113.73,111.07a12.95,12.95,0,1,0-17,12.27l-8.87,21.87h25.89l-8.87-21.87A12.93,12.93,0,0,0,113.73,111.07Z"/></g></g></svg>