<svg xmlns="http://www.w3.org/2000/svg" viewBox="0 0 201.57 201.57"><defs><style>.cls-1{fill:#f8ba00;}.cls-2{fill:#f5c95e;}.cls-3{fill:none;}</style></defs><title>Recurso 2</title><g id="Capa_2" data-name="Capa 2"><g id="Capa_1-2" data-name="Capa 1"><rect class="cls-1" x="65.02" y="65.17" width="71.11" height="71.11" transform="translate(201.3 0.15) rotate(90)"/><rect class="cls-2" x="65.02" y="71.33" width="64.95" height="64.95" transform="translate(201.3 6.31) rotate(90)"/><polygon class="cls-1" points="179.98 100.73 142.48 65.17 142.48 136.28 179.98 100.73"/><polygon class="cls-1" points="21.58 100.73 59.08 136.28 59.08 65.17 21.58 100.73"/><polygon class="cls-1" points="100.78 179.93 136.34 142.43 65.23 142.43 100.78 179.93"/><polygon class="cls-1" points="100.78 21.53 65.23 59.03 136.34 59.03 100.78 21.53"/><polygon class="cls-2" points="21.58 100.73 53.76 76.82 59.08 136.28 21.58 100.73"/><polygon class="cls-2" points="124.81 147.86 100.9 180.04 65.34 142.54 124.81 147.86"/><line class="cls-2" x1="53.76" y1="76.82" x2="59.08" y2="136.28"/><polygon class="cls-2" points="65.23 59.03 99.91 30.67 136.34 59.03 65.23 59.03"/><polygon class="cls-2" points="142.48 136.28 170.84 101.6 142.48 65.17 142.48 136.28"/><rect class="cls-3" width="201.57" height="201.57"/></g></g></svg>